<svg width="341" height="368" viewBox="0 0 341 368" fill="none" xmlns="http://www.w3.org/2000/svg">
<path d="M151.972 366.179C145.668 368.334 138.464 364.064 135.958 356.661L96.959 242.399L119.747 234.604L158.785 349.022C161.291 356.347 158.237 364.025 151.972 366.179Z" fill="black"/>
<path d="M148.565 367.589C146.725 367.589 144.845 367.158 143.044 366.257C139.403 364.456 136.505 361.087 135.096 356.935L96.0971 242.673C95.9405 242.242 96.1755 241.733 96.6453 241.576L119.434 233.781C119.669 233.703 119.904 233.703 120.099 233.82C120.295 233.938 120.452 234.095 120.53 234.33L159.568 348.748C162.191 356.504 158.902 364.691 152.207 367.002C151.071 367.393 149.818 367.589 148.565 367.589ZM98.0549 242.947L136.779 356.386C138.032 360.108 140.617 363.163 143.827 364.73C146.412 365.983 149.192 366.218 151.698 365.357C157.493 363.359 160.312 356.151 157.962 349.296L119.199 235.701L98.0549 242.947Z" fill="black"/>
<path d="M115.714 135.971L41.9843 188.578L13.2835 218.387L2.00679 238.325L1.96763 238.482C-0.264217 241.929 1.02791 249.88 5.21752 257.989C9.32882 265.98 15.1238 271.542 19.1959 271.855L19.0785 271.934L40.7313 274.284L81.257 267.821L167.281 237.032L274.214 255.364L274.958 255.403C248.097 250.39 211.84 214.47 185.488 163.665C159.176 112.899 150.797 62.7214 162.347 37.9653H162.308L116.301 134.718L115.714 135.971Z" fill="#B9FF66"/>
<path d="M292.729 253.192C319.157 239.462 314.046 177.218 281.315 114.166C248.584 51.114 200.626 11.1305 174.199 24.8605C147.771 38.5904 152.882 100.834 185.613 163.887C218.344 226.939 266.302 266.922 292.729 253.192Z" fill="white"/>
<path d="M281.106 256.774C269.594 256.774 255.733 250.35 240.815 237.855C220.494 220.854 200.564 194.649 184.706 164.017C160.704 117.639 150.797 70.0853 159.49 42.8614C162.387 33.7738 167.243 27.4281 173.86 24.0202C187.016 17.2828 205.536 23.0017 226.054 40.1586C246.375 57.1588 266.305 83.3642 282.163 113.996C306.204 160.374 316.111 207.928 307.379 235.152C304.482 244.239 299.626 250.585 293.009 253.993C289.446 255.873 285.452 256.774 281.106 256.774ZM185.841 23.0017C181.808 23.0017 178.049 23.8243 174.682 25.587C168.456 28.7599 163.914 34.7922 161.173 43.449C152.598 70.2811 162.466 117.325 186.272 163.312C218.693 225.868 266.227 265.901 292.265 252.544C298.491 249.371 303.033 243.339 305.774 234.682C314.349 207.85 304.482 160.805 280.675 114.819C252.444 60.3709 212.819 23.0017 185.841 23.0017Z" fill="black"/>
<path d="M281.106 256.775C269.594 256.775 255.733 250.351 240.815 237.855C220.494 220.855 200.564 194.649 184.706 164.018C160.704 117.639 150.797 70.0857 159.49 42.8618C162.387 33.7742 167.243 27.4285 173.86 24.0206C182.67 19.4768 194.181 20.6127 207.142 27.2718C219.554 33.6567 232.984 44.9771 246.062 59.9796C246.375 60.3321 246.336 60.8805 245.984 61.1939C245.631 61.5072 245.083 61.4681 244.77 61.1155C218.223 30.6405 191.362 17.009 174.682 25.5874C168.456 28.7603 163.914 34.7926 161.173 43.4494C152.598 70.2815 162.466 117.326 186.272 163.313C214.464 217.721 254.128 255.129 281.067 255.129C285.1 255.129 288.859 254.307 292.226 252.544C298.452 249.371 302.994 243.339 305.735 234.682C314.31 207.85 304.442 160.806 280.636 114.819C273.549 101.109 265.561 88.2218 256.986 76.5097C256.712 76.118 256.791 75.5696 257.182 75.2954C257.574 75.0212 258.122 75.0996 258.396 75.4913C267.049 87.2817 275.037 100.247 282.202 114.036C306.204 160.375 316.111 207.928 307.379 235.152C304.482 244.24 299.626 250.586 293.009 253.993C289.446 255.874 285.452 256.775 281.106 256.775Z" fill="black"/>
<path d="M232.766 172.928C238.889 169.747 237.711 155.34 230.136 140.748C222.561 126.156 211.458 116.906 205.335 120.087C199.213 123.267 200.391 137.675 207.965 152.267C215.54 166.858 226.644 176.109 232.766 172.928Z" fill="#B9FF66"/>
<path d="M230.087 174.437C223.352 174.437 213.955 165.741 207.181 152.619C201.543 141.729 199.233 130.527 201.308 124.063C202.052 121.791 203.266 120.185 204.949 119.324C211.606 115.916 223 125.199 230.909 140.437C236.548 151.326 238.858 162.529 236.782 168.992C236.039 171.264 234.825 172.87 233.141 173.732C232.201 174.202 231.183 174.437 230.087 174.437ZM208.003 120.303C207.181 120.303 206.398 120.46 205.732 120.812C204.44 121.478 203.501 122.732 202.913 124.573C200.995 130.605 203.226 141.338 208.669 151.836C215.874 165.741 226.72 175.103 232.319 172.204C233.611 171.539 234.551 170.285 235.138 168.444C237.057 162.373 234.786 151.679 229.382 141.181C223.039 128.999 213.955 120.303 208.003 120.303Z" fill="#B9FF66"/>
<path d="M275.155 242.164C265.053 242.164 252.914 236.523 239.837 225.594C222.06 210.709 204.597 187.755 190.736 160.962C169.71 120.381 161.056 78.7423 168.652 54.8872C171.197 46.8963 175.465 41.334 181.3 38.3179C194.691 31.4629 214.386 39.3755 235.373 60.0186C235.725 60.3711 235.725 60.8804 235.373 61.2329C235.021 61.5854 234.512 61.5854 234.159 61.2329C213.72 41.1382 194.73 33.304 182.083 39.8455C176.679 42.6267 172.725 47.8364 170.297 55.3964C162.818 78.8207 171.432 119.95 192.263 160.179C216.892 207.772 251.544 240.44 275.115 240.44C278.639 240.44 281.889 239.696 284.865 238.207C290.269 235.426 294.223 230.217 296.651 222.657C304.13 199.232 295.515 158.103 274.685 117.874C268.381 105.731 261.333 94.3324 253.737 84.0304C253.463 83.6387 253.541 83.0903 253.933 82.8161C254.324 82.5419 254.872 82.6202 255.146 83.012C262.821 93.4314 269.908 104.869 276.251 117.091C297.277 157.672 305.931 199.311 298.335 223.166C295.789 231.157 291.522 236.719 285.687 239.735C282.477 241.341 278.953 242.164 275.155 242.164Z" fill="black"/>
<path d="M40.7713 275.107C40.7321 275.107 40.6929 275.107 40.6929 275.107L19.0401 272.756C18.9226 272.756 18.8052 272.717 18.6877 272.639C14.224 271.934 8.58565 266.293 4.47435 258.381C0.0889648 250.037 -1.20316 241.89 1.18531 238.051L1.22447 237.933L12.5012 217.956C12.5403 217.878 12.5795 217.839 12.6186 217.8L41.3194 187.99C41.3586 187.951 41.3977 187.912 41.4369 187.873L114.97 135.384L161.487 37.5739C161.604 37.378 161.761 37.2213 161.996 37.143C162.231 37.0646 162.466 37.0646 162.662 37.1821C163.092 37.378 163.288 37.8872 163.092 38.3181C151.306 63.5834 160.625 113.801 186.233 163.234C211.88 212.746 247.628 249.411 275.155 254.464C275.585 254.542 275.898 254.934 275.859 255.404C275.82 255.835 275.429 256.148 274.998 256.187L274.254 256.148C274.215 256.148 274.176 256.148 274.136 256.148L167.399 237.855L81.571 268.565C81.5319 268.565 81.4535 268.604 81.4144 268.604L40.8887 275.068C40.8496 275.107 40.8104 275.107 40.7713 275.107ZM19.6666 271.111L40.7713 273.383L81.1012 266.92L167.086 236.171C167.243 236.132 167.36 236.092 167.517 236.132L263.604 252.583C237.644 241.185 207.298 207.537 184.784 164.057C162.427 120.891 152.442 77.0582 157.924 49.3643L116.497 136.324C116.419 136.441 116.341 136.559 116.223 136.637L42.5724 189.244L13.9891 218.896L2.71237 238.874C2.71237 238.913 2.67321 238.952 2.67321 238.952C0.637138 242.125 2.00757 249.959 5.96225 257.597C9.83862 265.079 15.4378 270.72 19.275 270.994C19.4317 270.994 19.5491 271.033 19.6666 271.111Z" fill="black"/>
<path d="M115.83 135.658L162.308 37.9263H162.347C150.796 62.6823 159.214 112.86 185.487 163.626C211.839 214.47 248.097 250.39 275.035 255.325L274.292 255.286L167.515 236.993L165.048 236.562C152.636 234.369 136.074 218.23 124.209 195.198C112.032 171.578 109.879 148.036 115.282 136.833L115.83 135.658Z" fill="white"/>
<path d="M275.036 256.187C274.997 256.187 275.036 256.187 275.036 256.187L274.253 256.148C274.214 256.148 274.174 256.148 274.135 256.148L167.359 237.855L164.892 237.424C151.775 235.113 135.134 218.309 123.427 195.629C110.153 169.854 109.487 146.9 114.499 136.48L115.087 135.305L161.564 37.6129C161.681 37.4171 161.838 37.2604 162.073 37.182C162.308 37.1037 162.543 37.1037 162.739 37.2212C163.169 37.4171 163.365 37.9263 163.169 38.3572C151.384 63.6225 160.702 113.84 186.31 163.273C211.957 212.786 247.705 249.45 275.232 254.503C275.662 254.581 275.976 254.973 275.936 255.443C275.819 255.834 275.467 256.187 275.036 256.187ZM157.844 49.3642L116.614 136.05L116.026 137.225C111.054 147.566 112.502 170.677 124.954 194.806C136.426 217.055 152.597 233.507 165.205 235.701L167.672 236.131L263.563 252.583C237.603 241.184 207.258 207.537 184.744 164.057C162.386 120.89 152.402 77.0581 157.844 49.3642Z" fill="black"/>
<path d="M39.5961 274.989C39.5569 274.989 39.5178 274.989 39.5178 274.989L19.0004 272.796C18.883 272.796 18.7655 272.757 18.648 272.678C14.1844 271.973 8.546 266.332 4.4347 258.42C0.0884658 250.037 -1.20366 241.89 1.18481 238.051L1.22397 237.933L12.5007 217.956C12.7356 217.525 13.2446 217.408 13.6753 217.643C14.106 217.878 14.2235 218.387 13.9886 218.818L2.71187 238.874C2.71187 238.913 2.67271 238.952 2.67271 238.952C0.636639 242.125 2.00707 249.959 5.96175 257.597C9.83812 265.079 15.4373 270.72 19.2745 270.994C19.392 270.994 19.5486 271.033 19.6269 271.111L39.6744 273.266C40.1443 273.305 40.4967 273.736 40.4184 274.206C40.3792 274.637 40.0268 274.989 39.5961 274.989Z" fill="black"/>
<path d="M40.9662 274.127C34.3099 273.657 24.9909 264.217 18.2171 251.173C11.0516 237.346 9.36797 223.048 13.7534 217.956L2.04594 238.325L1.96763 238.482C-0.264217 241.929 1.02791 249.88 5.21752 257.989C9.32882 265.98 15.1238 271.542 19.1959 271.855L19.0785 271.934L40.9662 274.127Z" fill="white"/>
<path d="M40.9665 274.989C40.9274 274.989 40.9274 274.989 40.8882 274.989C40.7316 274.989 40.5358 274.95 40.3792 274.95L19.0004 272.795C18.883 272.795 18.7655 272.756 18.648 272.678C14.1844 271.973 8.546 266.332 4.4347 258.42C0.0884658 250.037 -1.20366 241.889 1.18481 238.051L1.22397 237.933L11.5218 219.993C11.9133 218.974 12.4224 218.073 13.0488 217.329C13.3229 216.977 13.832 216.938 14.1844 217.173C14.5367 217.447 14.6542 217.917 14.4193 218.309L12.9705 220.776C10.6604 227.004 12.9314 239.226 18.883 250.664C25.3436 263.159 34.1535 272.286 40.4575 273.109L40.9274 273.148C41.3972 273.187 41.7496 273.618 41.7105 274.088C41.7496 274.636 41.3972 274.989 40.9665 274.989ZM19.6269 271.111L34.5842 272.639C28.8284 268.957 22.4853 261.357 17.4342 251.565C12.5398 242.124 10.1122 232.332 10.5038 225.281L2.71187 238.873C2.71187 238.912 2.67271 238.952 2.67271 238.952C0.636639 242.124 2.00707 249.959 5.96175 257.597C9.83812 265.079 15.4373 270.719 19.2745 270.993C19.392 270.993 19.5486 271.033 19.6269 271.111Z" fill="black"/>
<path d="M79.8079 267.977L81.5307 267.625C72.2118 269.583 57.4894 255.482 47.1132 235.465C36.5022 215.018 34.5053 194.61 42.0231 188.578L41.0442 189.557L13.8313 217.838C9.36759 222.852 11.0121 237.228 18.2167 251.134C25.1472 264.53 34.9751 274.088 41.6707 274.049L79.8079 267.977Z" fill="black"/>
<path d="M41.6323 274.95C34.5061 274.95 24.5998 265.353 17.4344 251.565C10.1515 237.463 8.3112 222.735 13.1664 217.29L39.8703 189.557C40.3402 188.93 40.8884 188.382 41.4757 187.912C41.8281 187.638 42.3371 187.677 42.6503 187.99C42.9636 188.343 42.9636 188.852 42.6503 189.165L41.1233 190.771C35.6807 198.057 38.3824 216.703 47.8971 235.074C58.1558 254.894 72.4866 268.487 81.2574 266.841L81.3749 266.802C81.8447 266.724 82.2754 266.998 82.3929 267.468C82.4712 267.938 82.1971 268.369 81.7273 268.487C81.6881 268.487 81.649 268.487 81.6098 268.526L80.0044 268.839H79.9653L41.8281 274.911C41.7498 274.911 41.6715 274.95 41.6323 274.95ZM37.5993 194.414L14.4586 218.465C10.1515 223.322 12.1093 237.502 19.0006 250.781C25.7353 263.786 35.25 273.187 41.6323 273.226L75.3058 267.86C66.2218 264.648 55.0234 252.544 46.3701 235.896C38.1475 220.032 34.9759 203.894 37.5993 194.414Z" fill="black"/>
<path d="M205.341 120.068C199.194 123.202 200.094 137.734 207.925 152.227C221.042 176.474 231.497 173.615 232.711 173.184C232.75 173.184 232.75 173.223 232.711 173.223L210.196 191.359C203.579 182.076 197.275 171.734 191.48 160.571C185.959 149.877 181.3 139.222 177.619 128.881L205.341 120.068Z" fill="black"/>
<path d="M210.196 192.221C210.157 192.221 210.118 192.221 210.079 192.221C209.844 192.182 209.648 192.064 209.491 191.868C202.717 182.35 196.413 171.93 190.736 161.002C185.293 150.504 180.595 139.81 176.836 129.234C176.758 128.999 176.758 128.764 176.875 128.568C176.992 128.372 177.149 128.215 177.384 128.137L205.106 119.324C205.537 119.206 206.006 119.402 206.163 119.833C206.32 120.264 206.163 120.734 205.772 120.93C204.44 121.596 203.461 122.927 202.874 124.886C200.955 131.036 203.305 141.925 208.747 151.914C221.551 175.573 231.418 172.87 232.475 172.479C232.867 172.322 233.337 172.518 233.533 172.87C233.728 173.223 233.65 173.732 233.337 174.006L210.744 192.025C210.588 192.142 210.392 192.221 210.196 192.221ZM178.754 129.43C182.474 139.653 187.016 149.995 192.263 160.179C197.745 170.755 203.853 180.822 210.392 190.106L229.93 174.359C225.467 174.163 217.048 170.833 207.181 152.619C201.464 142.082 199.115 130.957 201.19 124.259C201.464 123.397 201.778 122.653 202.169 121.948L178.754 129.43Z" fill="black"/>
</svg>
